<svg width="144" height="40" viewBox="0 0 144 40" fill="none" xmlns="http://www.w3.org/2000/svg">
<path d="M15 0C17.1 0 18.9 0 21 0C21 12.3 21 24.3 21 36.6C18.6 36.9 16.2 37.2 14.1 37.5C11.1 30 6 17.1 6 17.1C6 17.1 6 30 6 38.4C7.2 38.4 5.4 38.4 0 39.3C0 26.4 0 13.2 0 0.300001C2.4 0.300001 6 0.300001 6 0.300001L15 22.2C15 22.2 15 8.4 15 0ZM44.1 6C44.1 4.2 44.1 1.8 44.1 0C38.4 0 32.7 0 27 0C27 12 27 24 27 36C32.7 35.4 38.4 34.8 44.1 34.2C44.1 32.4 44.1 30 44.1 28.2C40.5 28.5 36.9 28.5 33 29.4C33 26.1 33 24.3 33 21C35.7 21 39.3 21 42 21C42 19.2 42 16.8 42 15C39.3 15 35.7 15 33 15C33 11.7 33 9.3 33 6C34.8 6.3 42.6 6.3 44.1 6ZM48 6C48.3 6 53.7 6 54 6C54 15.6 54 24 54 33.6C56.1 33.6 57.9 33.6 60 33.3C60 23.7 60 15.6 60 6C62.1 6 63.9 6 66 6C66 4.2 66 1.8 66 0C59.7 0 54.3 0 48 0C48 1.8 48 4.2 48 6ZM85.8 0C80.1 0 74.7 0 69 0C69 11.4 69 21.6 69 33C69.6 33 70.2 33 70.8 33C72 33 73.5 33 75 33C75 28.2 75 25.8 75 21C75.3 21 82.2 21 83.1 21C83.1 19.2 83.1 16.8 83.1 15C82.2 15 75.3 15 75 15C75 12 75 9 75 6C75.6 6 84.3 6 85.8 6C85.8 4.5 85.8 1.8 85.8 0ZM96 28.5C96 18.6 96 9.9 96 0C93.9 0 92.1 0 90 0C90 11.4 90 22.2 90 33.6C95.4 33.9 100.8 34.2 106.2 34.8C106.2 33 106.2 30.9 106.2 29.1C102.9 28.8 99.3 28.5 96 28.5ZM111 35.1C113.1 35.4 114.9 35.4 117 35.7C117 23.7 117 12 117 0C114.9 0 113.1 0 111 0C111 12 111 23.4 111 35.1ZM136.2 18.6C138.9 12.6 141.3 6.6 144 0.300001C141.9 0.300001 139.5 0.300001 137.4 0.300001C135.9 4.2 134.7 6.9 133.2 10.5C131.7 6.6 130.8 3.9 129.3 0.300001C127.2 0.300001 124.8 0.300001 122.7 0.300001C125.1 6.3 127.2 12.3 129.9 18.6C127.2 24.6 124.8 30.6 122.1 36.6C124.2 36.9 126.3 37.2 128.4 37.5C129.9 33.6 131.4 30.9 132.9 27C134.4 31.2 135.9 34.2 137.4 38.4C139.5 38.7 142.2 39 144.3 39.3C141.3 32.1 138.6 24.9 136.2 18.6Z" fill="#e50914"/>
</svg>
